<svg width="48" height="48" viewBox="0 0 48 48" fill="none" xmlns="http://www.w3.org/2000/svg">
<g clip-path="url(#clip0_303_3)">
<path fill-rule="evenodd" clip-rule="evenodd" d="M25.414 31.414C25.0389 31.789 24.5303 31.9996 24 31.9996C23.4696 31.9996 22.961 31.789 22.586 31.414L11.272 20.1C11.0809 19.9155 10.9286 19.6948 10.8238 19.4508C10.7189 19.2068 10.6638 18.9444 10.6615 18.6788C10.6591 18.4133 10.7097 18.1499 10.8103 17.9041C10.9109 17.6583 11.0594 17.435 11.2472 17.2472C11.4349 17.0594 11.6583 16.9109 11.904 16.8104C12.1498 16.7098 12.4132 16.6592 12.6788 16.6615C12.9443 16.6638 13.2068 16.719 13.4508 16.8238C13.6948 16.9286 13.9155 17.081 14.1 17.272L24 27.172L33.9 17.272C34.2772 16.9077 34.7824 16.7061 35.3068 16.7107C35.8311 16.7152 36.3328 16.9256 36.7036 17.2964C37.0744 17.6672 37.2847 18.1688 37.2893 18.6932C37.2939 19.2176 37.0923 19.7228 36.728 20.1L25.414 31.414Z" fill="#FFCE67"/>
</g>
<defs>
<clipPath id="clip0_303_3">
<rect width="48" height="48" fill="white"/>
</clipPath>
</defs>
</svg>
