<svg width="48" height="48" viewBox="0 0 48 48" fill="none" xmlns="http://www.w3.org/2000/svg">
<path d="M24 16.5C21.944 16.4353 19.9463 17.1884 18.4447 18.5943C16.9432 20.0003 16.0604 21.9442 15.99 24C16.0604 26.0558 16.9432 27.9997 18.4447 29.4057C19.9463 30.8116 21.944 31.5648 24 31.5C26.056 31.5648 28.0537 30.8116 29.5552 29.4057C31.0568 27.9997 31.9395 26.0558 32.01 24C31.9395 21.9442 31.0568 20.0003 29.5552 18.5943C28.0537 17.1884 26.056 16.4353 24 16.5ZM24 27.75C22.9402 27.8078 21.9 27.4473 21.1033 26.746C20.3066 26.0447 19.817 25.0586 19.74 24C19.817 22.9414 20.3066 21.9553 21.1033 21.254C21.9 20.5527 22.9402 20.1922 24 20.25C25.0598 20.1922 26.1 20.5527 26.8967 21.254C27.6934 21.9553 28.1829 22.9414 28.26 24C28.1829 25.0586 27.6934 26.0447 26.8967 26.746C26.1 27.4473 25.0598 27.8078 24 27.75Z" fill="#ffce67"/>
<path d="M24 7.49998C18.755 7.29331 13.5838 8.78843 9.25838 11.7622C4.93294 14.7359 1.68521 19.0288 0 24C1.68521 28.9712 4.93294 33.264 9.25838 36.2378C13.5838 39.2115 18.755 40.7067 24 40.5C29.245 40.7067 34.4162 39.2115 38.7416 36.2378C43.0671 33.264 46.3148 28.9712 48 24C46.3148 19.0288 43.0671 14.7359 38.7416 11.7622C34.4162 8.78843 29.245 7.29331 24 7.49998ZM40.2 30C38.1578 32.2415 35.6486 34.0076 32.8496 35.1739C30.0505 36.3402 27.0296 36.8782 24 36.75C20.9704 36.8782 17.9495 36.3402 15.1504 35.1739C12.3514 34.0076 9.84225 32.2415 7.8 30C6.20741 28.2241 4.91998 26.1966 3.99 24C4.91998 21.8033 6.20741 19.7759 7.8 18C9.84225 15.7585 12.3514 13.9923 15.1504 12.8261C17.9495 11.6598 20.9704 11.1218 24 11.25C27.0296 11.1218 30.0505 11.6598 32.8496 12.8261C35.6486 13.9923 38.1578 15.7585 40.2 18C41.7926 19.7759 43.08 21.8033 44.01 24C43.08 26.1966 41.7926 28.2241 40.2 30Z" fill="#ffce67"/>
</svg>
