<svg width="48" height="48" viewBox="0 0 48 48" fill="none" xmlns="http://www.w3.org/2000/svg">
<path d="M7 6C7 2.69063 9.69063 0 13 0H34C37.3094 0 40 2.69063 40 6V42C40 45.3094 37.3094 48 34 48H13C9.69063 48 7 45.3094 7 42V6ZM26.5 42C26.5 41.2044 26.1839 40.4413 25.6213 39.8787C25.0587 39.3161 24.2956 39 23.5 39C22.7044 39 21.9413 39.3161 21.3787 39.8787C20.8161 40.4413 20.5 41.2044 20.5 42C20.5 42.7956 20.8161 43.5587 21.3787 44.1213C21.9413 44.6839 22.7044 45 23.5 45C24.2956 45 25.0587 44.6839 25.6213 44.1213C26.1839 43.5587 26.5 42.7956 26.5 42ZM34 6H13V36H34V6Z" fill="#ffce67"/>
</svg>
