<svg width="48" height="48" viewBox="0 0 48 48" fill="none" xmlns="http://www.w3.org/2000/svg">
<path d="M20.5714 37.7143L17.1429 46.2857M27.4286 37.7143L30.8572 46.2857M13.7143 46.2857H34.2857M44.5714 6.85715H3.42858C2.97392 6.85715 2.53789 7.03776 2.2164 7.35925C1.89491 7.68074 1.71429 8.11678 1.71429 8.57143V36C1.71429 36.4547 1.89491 36.8907 2.2164 37.2122C2.53789 37.5337 2.97392 37.7143 3.42858 37.7143H44.5714C45.0261 37.7143 45.4621 37.5337 45.7836 37.2122C46.1051 36.8907 46.2857 36.4547 46.2857 36V8.57143C46.2857 8.11678 46.1051 7.68074 45.7836 7.35925C45.4621 7.03776 45.0261 6.85715 44.5714 6.85715Z" stroke="#ffce67" stroke-width="3.42857" stroke-linecap="round" stroke-linejoin="round"/>
<path d="M15.4286 18L9.42859 23.1429L14.5714 27.4286M33.4286 18.8572L38.5714 23.1429L32.5714 28.2857M21.4286 30L26.5714 14.5714" stroke="#ffce67" stroke-width="3.42857" stroke-linecap="round" stroke-linejoin="round"/>
</svg>
