<svg width="48" height="48" viewBox="0 0 48 48" fill="none" xmlns="http://www.w3.org/2000/svg">
<g clip-path="url(#clip0_294_35)">
<path d="M24 0C17.6348 0 11.5303 2.52856 7.02944 7.02944C2.52856 11.5303 0 17.6348 0 24C0 30.3652 2.52856 36.4697 7.02944 40.9706C11.5303 45.4714 17.6348 48 24 48C30.3652 48 36.4697 45.4714 40.9706 40.9706C45.4714 36.4697 48 30.3652 48 24C48 17.6348 45.4714 11.5303 40.9706 7.02944C36.4697 2.52856 30.3652 0 24 0ZM31.7867 32.9067C31.7867 33.84 32.16 34.5867 32.7467 34.6667C33.3333 34.7467 34 34.08 34.2933 33.0667L34.8267 33.28C35.7557 33.7766 36.4855 34.5778 36.8934 35.549C37.3014 36.5203 37.3625 37.6023 37.0667 38.6133C36.8706 39.5106 36.3868 40.3193 35.6888 40.9162C34.9908 41.5131 34.1168 41.8656 33.2 41.92C31.8933 38.6933 27.5733 42.08 23.7067 41.3333C22.9028 41.131 22.16 40.7365 21.5422 40.1838C20.9244 39.631 20.4501 38.9365 20.16 38.16C23.3333 37.8667 27.76 33.5467 31.7867 32.9067ZM21.3333 30.0533C22.5178 30.0514 23.6617 29.6211 24.5537 28.8418C25.4457 28.0625 26.0257 26.9868 26.1867 25.8133C26.7521 26.5113 27.0449 27.3908 27.0106 28.2884C26.9763 29.186 26.6171 30.0406 26 30.6933C25.664 30.9875 25.2689 31.2061 24.8412 31.3344C24.4134 31.4627 23.9632 31.4977 23.5208 31.437C23.0784 31.3764 22.6542 31.2214 22.2768 30.9827C21.8994 30.744 21.5777 30.4271 21.3333 30.0533ZM29.3333 28.0267C30.4267 29.0667 37.3333 27.8667 38.72 30.9333C36.1867 30.4 30.8533 32.56 29.4667 28.0533L29.3333 28.0267ZM25.9467 14.5333V15.2533C24.2133 13.2 22.4 12.4 21.6533 13.7333C20.9067 15.0667 24.32 16.6933 23.68 18.7467C23.04 20.8 20.2933 20.24 18.6667 23.04C17.04 25.84 17.36 29.4933 21.9733 32.8267C20.4177 32.6542 18.9468 32.0292 17.7429 31.0291C16.5389 30.029 15.6548 28.6976 15.2 27.2C14.1333 24 14.96 21.1733 13.12 20.64C10.6667 19.8933 8 23.2267 8 26.1333C4.64 22.7733 8.13333 18.5067 4.8 14.9867C6.9915 10.3203 10.82 6.621 15.5587 4.59081C20.2974 2.56062 25.6166 2.3409 30.5067 3.97333C29.054 5.31962 27.8982 6.95413 27.113 8.77243C26.3278 10.5907 25.9306 12.5528 25.9467 14.5333Z" fill="black"/>
</g>
<defs>
<clipPath id="clip0_294_35">
<rect width="48" height="48" fill="white"/>
</clipPath>
</defs>
</svg>
